<?xml version="1.0" encoding="UTF-8"?>
<svg id="Layer_5" data-name="Layer 5" xmlns="http://www.w3.org/2000/svg" viewBox="0 0 98 98">
  <defs>
    <style>
      .cls-1 {
        stroke-width: 0px;
      }
    </style>
  </defs>
  <path class="cls-1" d="m56.26,17.9l15.03-13.88c.79-.73,1.83-1.14,2.91-1.14h5.35c2.08,0,3.77,1.69,3.77,3.77v38.97c0,2.08-1.69,3.77-3.77,3.77h-3.52c-2.08,0-3.77-1.69-3.77-3.77v-26.55c0-1.08-1.31-1.62-2.07-.86l-6.92,6.92c-1.47,1.47-3.86,1.47-5.33,0l-1.8-1.8c-1.51-1.51-1.46-3.98.11-5.43Z"/>
  <path class="cls-1" d="m22.43,64H7.92c-1.61,0-2.92-1.65-2.92-3.68v-2.65c0-2.03,1.31-3.68,2.92-3.68h25.15c1.61,0,2.92,1.65,2.92,3.68v4.65c0,1.06-.36,2.07-1,2.77l-16.84,18.54c-.43.47-.16,1.36.41,1.36h14.5c1.61,0,2.92,1.65,2.92,3.68v2.65c0,2.03-1.31,3.68-2.92,3.68H7.92c-1.61,0-2.92-1.65-2.92-3.68v-4.54c0-1.13.39-2.21,1.07-2.96l16.77-18.46c.43-.47.16-1.36-.41-1.36Z"/>
  <path class="cls-1" d="m62.59,54h-15.18c-1.88,0-3.41,1.53-3.41,3.41v11.63c0,1.88,1.53,3.41,3.41,3.41h5.78c.33,0,.52.38.32.65l-8.83,11.77c-.44.59-.68,1.31-.68,2.05v4.68c0,1.88,1.53,3.41,3.41,3.41h15.18c1.88,0,3.41-1.53,3.41-3.41v-2.4c0-1.88-1.53-3.41-3.41-3.41h-5.78c-.33,0-.52-.38-.32-.65l8.83-11.77c.44-.59.68-1.31.68-2.05v-13.9c0-1.88-1.53-3.41-3.41-3.41Zm-4.57,11.27h-6.03c-.54,0-.98-.44-.98-.98v-2.13c0-.54.44-.98.98-.98h6.03c.54,0,.98.44.98.98v2.13c0,.54-.44.98-.98.98Z"/>
  <path class="cls-1" d="m76.99,95h16.01c1.65,0,2.99-1.34,2.99-2.99v-12.46c0-1.65-1.34-2.99-2.99-2.99h-8.83c-.56,0-.93-.57-.7-1.08l8.37-18.88c.54-1.22-.35-2.59-1.69-2.59h-4.22c-1.18,0-2.26.7-2.74,1.78l-8.75,19.74c-.3.68-.46,1.42-.46,2.16v14.33c0,1.65,1.34,2.99,2.99,2.99Zm4.99-11.27h6.03c.54,0,.98.44.98.98v2.13c0,.54-.44.98-.98.98h-6.03c-.54,0-.98-.44-.98-.98v-2.13c0-.54.44-.98.98-.98Z"/>
  <path class="cls-1" d="m56.27,44.67L40.73,5.77c-.7-1.74-2.38-2.89-4.26-2.89h-4c-1.85,0-3.51,1.11-4.23,2.81L11.88,44.53c-.89,2.12.66,4.47,2.97,4.47h4.01c1.3,0,2.46-.78,2.97-1.97l5.99-14.24c.2-.48.67-.79,1.19-.79h10.75c.53,0,1,.32,1.2.81l5.84,14.33c.5,1.23,1.71,2.03,3.04,2l3.49-.06c2.25-.04,3.77-2.32,2.93-4.41Zm-24.24-21.86l1.31-3.1c.43-1.02,1.89-1.02,2.31.01l1.26,3.1c.23.56-.18,1.18-.79,1.18h-3.29c-.61,0-1.02-.62-.79-1.19Z"/>
</svg>