<?xml version="1.0" encoding="UTF-8"?>
<svg id="Layer_4" data-name="Layer 4" xmlns="http://www.w3.org/2000/svg" viewBox="0 0 98 98">
  <defs>
    <style>
      .cls-1 {
        stroke-width: 0px;
      }
    </style>
  </defs>
  <path class="cls-1" d="m49,0C21.94,0,0,21.94,0,49s21.94,49,49,49,49-21.94,49-49S76.06,0,49,0Zm0,86.53c-20.73,0-37.53-16.8-37.53-37.53S28.27,11.47,49,11.47s37.53,16.8,37.53,37.53-16.8,37.53-37.53,37.53Z"/>
  <path class="cls-1" d="m60.91,34.67c-.14-1.13-.85-3.26-.85-4.46s.71-3.33.85-4.46c.11-.82-.67-1.5-1.5-1.5h-5.8c-.67,0-1.21-.54-1.21-1.21h0c0-1.68-1.36-3.04-3.04-3.04h-3.85c-1.83,0-3.31,1.48-3.31,3.31v33.35c0,.9-.73,1.62-1.62,1.62h0c-1.92,0-3.48,1.56-3.48,3.48v11.75c0,1.92,1.56,3.48,3.48,3.48h13.46c1.92,0,3.48-1.56,3.48-3.48v-11.75c0-1.92-1.56-3.48-3.48-3.48h0c-.9,0-1.62-.73-1.62-1.62v-19.34c0-.64.52-1.16,1.16-1.16h5.85c.83,0,1.6-.68,1.5-1.5Z"/>
</svg>