<?xml version="1.0" encoding="UTF-8"?>
<svg id="Layer_2" data-name="Layer 2" xmlns="http://www.w3.org/2000/svg" viewBox="0 0 97.37 96.85">
  <defs>
    <style>
      .cls-1 {
        stroke-width: 0px;
      }
    </style>
  </defs>
  <path class="cls-1" d="m95.27,36.64L51.08,12.54c-1.19-.65-2.62-.65-3.82-.02L2.12,36.66c-1.92,1.03-2.67,3.39-1.7,5.34l1.45,2.91c.99,1.98,3.41,2.79,5.39,1.8l5.19-2.59c.56-.28,1.22.13,1.22.75v33.62c0,2.22,1.8,4.02,4.02,4.02h61.96c2.22,0,4.02-1.8,4.02-4.02v-33.62c0-.63.66-1.03,1.22-.75l5.19,2.59c1.98.99,4.4.19,5.39-1.8l1.47-2.94c.97-1.93.23-4.29-1.67-5.32Zm-22.6,33.63c0,.68-.55,1.23-1.23,1.23H26.91c-.68,0-1.23-.55-1.23-1.23v-31.63c0-.46.25-.87.66-1.09l22.25-11.72c.37-.2.82-.19,1.18.02l22.29,12.58c.39.22.63.63.63,1.07v30.77Z"/>
</svg>